<svg width="24" height="19" viewBox="0 0 24 19" fill="none" xmlns="http://www.w3.org/2000/svg">
<path d="M12.0434 12.973C13.0093 12.0023 13.7019 10.7006 14.0273 9.24414C14.3528 7.78769 14.2952 6.247 13.8626 4.8309C13.4299 3.4148 12.643 2.19178 11.6086 1.32764C10.5742 0.463487 9.34219 0 8.07969 0C6.8172 0 5.58524 0.463487 4.5508 1.32764C3.51636 2.19178 2.72947 3.4148 2.29681 4.8309C1.86414 6.247 1.80662 7.78769 2.13205 9.24414C2.45747 10.7006 3.15009 12.0023 4.11603 12.973C2.54936 13.8191 1.20086 15.1503 0.210457 16.8286C0.123197 16.9765 0.0612024 17.1436 0.028012 17.3202C-0.00517843 17.4967 -0.00891422 17.6794 0.0170179 17.8577C0.0429501 18.036 0.0980423 18.2065 0.179149 18.3593C0.260256 18.5122 0.365789 18.6445 0.489722 18.7487C0.740017 18.9591 1.05007 19.0422 1.35167 18.9797C1.65326 18.9171 1.92171 18.7141 2.09794 18.4153C2.77254 17.2693 3.66818 16.334 4.70925 15.6883C5.75032 15.0426 6.90623 14.7055 8.07938 14.7055C9.25253 14.7054 10.4085 15.0424 11.4496 15.688C12.4907 16.3336 13.3864 17.2688 14.0611 18.4147C14.1483 18.5627 14.2592 18.6887 14.3872 18.7855C14.5153 18.8824 14.658 18.9481 14.8074 18.9791C14.9567 19.01 15.1097 19.0056 15.2576 18.9659C15.4055 18.9263 15.5454 18.8523 15.6693 18.7481C15.7933 18.6439 15.8988 18.5116 15.9799 18.3587C16.061 18.2058 16.1161 18.0353 16.142 17.857C16.1679 17.6787 16.1642 17.496 16.131 17.3195C16.0978 17.1429 16.0358 16.9758 15.9485 16.8279C14.9582 15.1499 13.6098 13.8189 12.0434 12.973ZM4.23241 7.35573C4.23241 6.44721 4.45805 5.5591 4.88079 4.80369C5.30354 4.04829 5.9044 3.45952 6.6074 3.11184C7.3104 2.76417 8.08396 2.6732 8.83026 2.85044C9.57656 3.02769 10.2621 3.46518 10.8001 4.1076C11.3382 4.75002 11.7046 5.56851 11.8531 6.45957C12.0015 7.35064 11.9253 8.27425 11.6341 9.11361C11.3429 9.95297 10.8498 10.6704 10.2171 11.1751C9.58445 11.6799 8.84062 11.9493 8.07969 11.9493C7.05968 11.9479 6.08178 11.4635 5.36052 10.6024C4.63926 9.74119 4.23356 8.5736 4.23241 7.35573ZM23.5104 18.7481C23.3865 18.8523 23.2466 18.9264 23.0987 18.966C22.9508 19.0057 22.7978 19.0102 22.6484 18.9792C22.4991 18.9482 22.3563 18.8825 22.2282 18.7856C22.1002 18.6887 21.9894 18.5627 21.9021 18.4147C21.2266 17.2699 20.3308 16.3354 19.2899 15.6899C18.249 15.0444 17.0936 14.7068 15.9207 14.7054C15.6145 14.7054 15.321 14.5602 15.1045 14.3018C14.8881 14.0433 14.7665 13.6928 14.7665 13.3273C14.7665 12.9619 14.8881 12.6113 15.1045 12.3529C15.321 12.0945 15.6145 11.9493 15.9207 11.9493C16.47 11.9485 17.0129 11.8072 17.5127 11.535C18.0126 11.2628 18.4578 10.8659 18.8184 10.3711C19.179 9.87623 19.4467 9.29492 19.6034 8.66623C19.7602 8.03755 19.8023 7.37608 19.727 6.72633C19.6518 6.07657 19.4608 5.4536 19.167 4.89932C18.8733 4.34504 18.4835 3.87232 18.0239 3.51294C17.5643 3.15357 17.0456 2.91589 16.5026 2.81588C15.9596 2.71588 15.405 2.75587 14.8761 2.93318C14.5814 3.03215 14.2659 2.98729 13.9989 2.80849C13.7319 2.62968 13.5354 2.33157 13.4525 1.97973C13.3696 1.62789 13.4072 1.25114 13.5569 0.932368C13.7067 0.613596 13.9563 0.378911 14.251 0.27994C15.6051 -0.176492 17.0493 -0.0650925 18.3429 0.595574C19.6366 1.25624 20.7015 2.42627 21.3603 3.91068C22.0191 5.39509 22.2319 7.10423 21.9633 8.75326C21.6947 10.4023 20.9609 11.8916 19.8842 12.9731C21.4507 13.819 22.7991 15.15 23.7895 16.8279C23.9657 17.1267 24.0353 17.4968 23.983 17.8569C23.9307 18.217 23.7607 18.5375 23.5104 18.748V18.7481Z" fill="black"/>
</svg>
