<svg width="172" height="29" viewBox="0 0 172 29" fill="none" xmlns="http://www.w3.org/2000/svg">
<path d="M23.0889 25.3442C21.8844 26.38 20.5355 27.175 19.042 27.729C17.5485 28.283 16.0008 28.5601 14.3989 28.5601C13.1704 28.5601 11.984 28.3975 10.8398 28.0723C9.70768 27.7591 8.64176 27.3135 7.64209 26.7354C6.65446 26.1452 5.75114 25.4406 4.93213 24.6216C4.11312 23.8026 3.40853 22.8993 2.81836 21.9116C2.24023 20.9119 1.78857 19.846 1.46338 18.7139C1.15023 17.5697 0.993652 16.3833 0.993652 15.1548C0.993652 13.9263 1.15023 12.7399 1.46338 11.5957C1.78857 10.4515 2.24023 9.38558 2.81836 8.39795C3.40853 7.39827 4.11312 6.48893 4.93213 5.66992C5.75114 4.85091 6.65446 4.15234 7.64209 3.57422C8.64176 2.98405 9.70768 2.53239 10.8398 2.21924C11.984 1.89404 13.1704 1.73145 14.3989 1.73145C16.0008 1.73145 17.5485 2.00846 19.042 2.5625C20.5355 3.10449 21.8844 3.89941 23.0889 4.94727L20.3428 9.46387C19.584 8.64486 18.6867 8.01855 17.6509 7.58496C16.6151 7.13932 15.5311 6.9165 14.3989 6.9165C13.2547 6.9165 12.1828 7.1333 11.1831 7.56689C10.1834 8.00049 9.31022 8.59066 8.56348 9.3374C7.81673 10.0721 7.22656 10.9453 6.79297 11.957C6.35938 12.9567 6.14258 14.0226 6.14258 15.1548C6.14258 16.2869 6.35938 17.3529 6.79297 18.3525C7.22656 19.3402 7.81673 20.2074 8.56348 20.9541C9.31022 21.7008 10.1834 22.291 11.1831 22.7246C12.1828 23.1582 13.2547 23.375 14.3989 23.375C15.5311 23.375 16.6151 23.1582 17.6509 22.7246C18.6867 22.279 19.584 21.6466 20.3428 20.8276L23.0889 25.3442ZM43.5942 18.1538C43.5942 19.5991 43.3353 20.9481 42.8174 22.2007C42.2995 23.4412 41.5949 24.5192 40.7036 25.4346C39.8123 26.3379 38.7645 27.0545 37.5601 27.5845C36.3677 28.1024 35.085 28.3613 33.7119 28.3613C32.3509 28.3613 31.0682 28.1024 29.8638 27.5845C28.6714 27.0545 27.6235 26.3379 26.7202 25.4346C25.8289 24.5192 25.1243 23.4412 24.6064 22.2007C24.0885 20.9481 23.8296 19.5991 23.8296 18.1538C23.8296 16.6844 24.0885 15.3234 24.6064 14.0708C25.1243 12.8182 25.8289 11.7402 26.7202 10.8369C27.6235 9.92155 28.6714 9.20492 29.8638 8.68701C31.0682 8.16911 32.3509 7.91016 33.7119 7.91016C35.085 7.91016 36.3677 8.15706 37.5601 8.65088C38.7645 9.13265 39.8123 9.8252 40.7036 10.7285C41.5949 11.6198 42.2995 12.6978 42.8174 13.9624C43.3353 15.215 43.5942 16.6121 43.5942 18.1538ZM38.626 18.1538C38.626 17.3589 38.4935 16.6423 38.2285 16.0039C37.9756 15.3535 37.6263 14.7995 37.1807 14.3418C36.735 13.8721 36.2111 13.5168 35.6089 13.2759C35.0187 13.0229 34.3864 12.8965 33.7119 12.8965C33.0374 12.8965 32.3991 13.0229 31.7969 13.2759C31.2067 13.5168 30.6888 13.8721 30.2432 14.3418C29.8096 14.7995 29.4663 15.3535 29.2134 16.0039C28.9604 16.6423 28.834 17.3589 28.834 18.1538C28.834 18.9006 28.9604 19.5931 29.2134 20.2314C29.4663 20.8698 29.8096 21.4238 30.2432 21.8936C30.6888 22.3633 31.2067 22.7367 31.7969 23.0137C32.3991 23.2786 33.0374 23.4111 33.7119 23.4111C34.3864 23.4111 35.0187 23.2847 35.6089 23.0317C36.2111 22.7788 36.735 22.4235 37.1807 21.9658C37.6263 21.5081 37.9756 20.9541 38.2285 20.3037C38.4935 19.6533 38.626 18.9367 38.626 18.1538ZM65.021 28H63.8286L61.9136 25.3442C61.4438 25.7658 60.944 26.1632 60.4141 26.5366C59.8962 26.8979 59.3481 27.2171 58.77 27.4941C58.1919 27.7591 57.5957 27.9699 56.9814 28.1265C56.3792 28.283 55.765 28.3613 55.1387 28.3613C53.7777 28.3613 52.495 28.1084 51.2905 27.6025C50.0981 27.0846 49.0503 26.374 48.147 25.4707C47.2557 24.5553 46.5511 23.4774 46.0332 22.2368C45.5153 20.9842 45.2563 19.6232 45.2563 18.1538C45.2563 16.6965 45.5153 15.3415 46.0332 14.0889C46.5511 12.8363 47.2557 11.7523 48.147 10.8369C49.0503 9.92155 50.0981 9.20492 51.2905 8.68701C52.495 8.16911 53.7777 7.91016 55.1387 7.91016C55.5723 7.91016 56.0179 7.94629 56.4756 8.01855C56.9453 8.09082 57.397 8.21126 57.8306 8.37988C58.2762 8.53646 58.6917 8.74723 59.0771 9.01221C59.4626 9.27718 59.7878 9.60238 60.0527 9.98779V0.95459H65.021V28ZM60.0527 18.1538C60.0527 17.4793 59.9202 16.8289 59.6553 16.2026C59.4023 15.5643 59.0531 15.0042 58.6074 14.5225C58.1618 14.0286 57.6379 13.6372 57.0356 13.3481C56.4455 13.047 55.8132 12.8965 55.1387 12.8965C54.4642 12.8965 53.8258 13.0169 53.2236 13.2578C52.6335 13.4987 52.1156 13.848 51.6699 14.3057C51.2363 14.7513 50.8931 15.2993 50.6401 15.9497C50.3872 16.6001 50.2607 17.3348 50.2607 18.1538C50.2607 18.8644 50.3872 19.5389 50.6401 20.1772C50.8931 20.8156 51.2363 21.3757 51.6699 21.8574C52.1156 22.3392 52.6335 22.7186 53.2236 22.9956C53.8258 23.2726 54.4642 23.4111 55.1387 23.4111C55.8132 23.4111 56.4455 23.2666 57.0356 22.9775C57.6379 22.6764 58.1618 22.285 58.6074 21.8032C59.0531 21.3094 59.4023 20.7493 59.6553 20.123C59.9202 19.4847 60.0527 18.8283 60.0527 18.1538ZM76.4932 23.2666C76.6859 23.3268 76.8786 23.369 77.0713 23.3931C77.264 23.4051 77.4567 23.4111 77.6494 23.4111C78.1312 23.4111 78.5949 23.3449 79.0405 23.2124C79.4862 23.0799 79.9017 22.8932 80.2871 22.6523C80.6846 22.3994 81.0339 22.0983 81.335 21.749C81.6481 21.3877 81.901 20.9902 82.0938 20.5566L85.707 24.188C85.2493 24.8384 84.7194 25.4225 84.1172 25.9404C83.527 26.4583 82.8826 26.8979 82.1841 27.2593C81.4976 27.6206 80.7689 27.8916 79.998 28.0723C79.2393 28.265 78.4564 28.3613 77.6494 28.3613C76.2884 28.3613 75.0057 28.1084 73.8013 27.6025C72.6089 27.0967 71.561 26.3921 70.6577 25.4888C69.7664 24.5854 69.0618 23.5135 68.5439 22.2729C68.026 21.0203 67.7671 19.6473 67.7671 18.1538C67.7671 16.6242 68.026 15.2271 68.5439 13.9624C69.0618 12.6978 69.7664 11.6198 70.6577 10.7285C71.561 9.83724 72.6089 9.14469 73.8013 8.65088C75.0057 8.15706 76.2884 7.91016 77.6494 7.91016C78.4564 7.91016 79.2453 8.00651 80.0161 8.19922C80.7869 8.39193 81.5156 8.66895 82.2021 9.03027C82.9007 9.3916 83.5511 9.83724 84.1533 10.3672C84.7555 10.8851 85.2855 11.4692 85.7432 12.1196L76.4932 23.2666ZM79.0225 13.0952C78.7936 13.0109 78.5648 12.9567 78.3359 12.9326C78.1191 12.9085 77.8903 12.8965 77.6494 12.8965C76.9749 12.8965 76.3366 13.0229 75.7344 13.2759C75.1442 13.5168 74.6263 13.866 74.1807 14.3237C73.7471 14.7814 73.4038 15.3354 73.1509 15.9858C72.8979 16.6242 72.7715 17.3468 72.7715 18.1538C72.7715 18.3345 72.7775 18.5392 72.7896 18.7681C72.8136 18.9969 72.8438 19.2318 72.8799 19.4727C72.9281 19.7015 72.9823 19.9243 73.0425 20.1411C73.1027 20.3579 73.181 20.5506 73.2773 20.7192L79.0225 13.0952ZM99.6362 28H94.4692V7.27783H86.6826V2.09277H107.405V7.27783H99.6362V28ZM112.861 28H107.929V8.65088H109.121L110.747 10.9453C111.542 10.2227 112.445 9.66862 113.457 9.2832C114.469 8.88574 115.517 8.68701 116.601 8.68701H120.955V13.6011H116.601C116.083 13.6011 115.595 13.6974 115.137 13.8901C114.68 14.0828 114.282 14.3478 113.945 14.6851C113.608 15.0223 113.343 15.4198 113.15 15.8774C112.957 16.3351 112.861 16.8229 112.861 17.3408V28ZM129.066 3.39355C129.066 3.85124 128.976 4.27881 128.795 4.67627C128.627 5.07373 128.392 5.42301 128.091 5.72412C127.79 6.01318 127.434 6.24805 127.025 6.42871C126.627 6.59733 126.2 6.68164 125.742 6.68164C125.285 6.68164 124.851 6.59733 124.441 6.42871C124.044 6.24805 123.695 6.01318 123.394 5.72412C123.104 5.42301 122.87 5.07373 122.689 4.67627C122.52 4.27881 122.436 3.85124 122.436 3.39355C122.436 2.94792 122.52 2.52637 122.689 2.12891C122.87 1.7194 123.104 1.37012 123.394 1.08105C123.695 0.779948 124.044 0.545085 124.441 0.376465C124.851 0.195801 125.285 0.105469 125.742 0.105469C126.2 0.105469 126.627 0.195801 127.025 0.376465C127.434 0.545085 127.79 0.779948 128.091 1.08105C128.392 1.37012 128.627 1.7194 128.795 2.12891C128.976 2.52637 129.066 2.94792 129.066 3.39355ZM128.217 28H123.249V8.65088H128.217V28ZM151.36 18.1538C151.36 19.6714 151.101 21.0565 150.583 22.3091C150.066 23.5617 149.361 24.6396 148.47 25.543C147.578 26.4342 146.531 27.1268 145.326 27.6206C144.134 28.1144 142.851 28.3613 141.478 28.3613C140.117 28.3613 138.834 28.1084 137.63 27.6025C136.438 27.0967 135.39 26.3921 134.486 25.4888C133.595 24.5854 132.89 23.5135 132.373 22.2729C131.855 21.0203 131.596 19.6473 131.596 18.1538V0.95459H136.546V9.98779C136.811 9.65055 137.13 9.34945 137.503 9.08447C137.889 8.8195 138.298 8.6027 138.732 8.43408C139.178 8.26546 139.635 8.139 140.105 8.05469C140.575 7.95833 141.032 7.91016 141.478 7.91016C142.851 7.91016 144.134 8.16911 145.326 8.68701C146.531 9.19287 147.578 9.90348 148.47 10.8188C149.361 11.7342 150.066 12.8182 150.583 14.0708C151.101 15.3114 151.36 16.6724 151.36 18.1538ZM146.392 18.1538C146.392 17.4071 146.26 16.7145 145.995 16.0762C145.742 15.4258 145.392 14.8657 144.947 14.396C144.501 13.9263 143.977 13.5589 143.375 13.2939C142.785 13.029 142.153 12.8965 141.478 12.8965C140.804 12.8965 140.165 13.047 139.563 13.3481C138.973 13.6372 138.455 14.0286 138.009 14.5225C137.564 15.0042 137.214 15.5643 136.961 16.2026C136.708 16.8289 136.582 17.4793 136.582 18.1538C136.582 18.9006 136.708 19.5931 136.961 20.2314C137.214 20.8698 137.564 21.4238 138.009 21.8936C138.455 22.3633 138.973 22.7367 139.563 23.0137C140.165 23.2786 140.804 23.4111 141.478 23.4111C142.153 23.4111 142.785 23.2786 143.375 23.0137C143.977 22.7367 144.501 22.3633 144.947 21.8936C145.392 21.4238 145.742 20.8698 145.995 20.2314C146.26 19.5931 146.392 18.9006 146.392 18.1538ZM161.803 23.2666C161.995 23.3268 162.188 23.369 162.381 23.3931C162.574 23.4051 162.766 23.4111 162.959 23.4111C163.441 23.4111 163.904 23.3449 164.35 23.2124C164.796 23.0799 165.211 22.8932 165.597 22.6523C165.994 22.3994 166.343 22.0983 166.645 21.749C166.958 21.3877 167.211 20.9902 167.403 20.5566L171.017 24.188C170.559 24.8384 170.029 25.4225 169.427 25.9404C168.837 26.4583 168.192 26.8979 167.494 27.2593C166.807 27.6206 166.078 27.8916 165.308 28.0723C164.549 28.265 163.766 28.3613 162.959 28.3613C161.598 28.3613 160.315 28.1084 159.111 27.6025C157.918 27.0967 156.871 26.3921 155.967 25.4888C155.076 24.5854 154.371 23.5135 153.854 22.2729C153.336 21.0203 153.077 19.6473 153.077 18.1538C153.077 16.6242 153.336 15.2271 153.854 13.9624C154.371 12.6978 155.076 11.6198 155.967 10.7285C156.871 9.83724 157.918 9.14469 159.111 8.65088C160.315 8.15706 161.598 7.91016 162.959 7.91016C163.766 7.91016 164.555 8.00651 165.326 8.19922C166.097 8.39193 166.825 8.66895 167.512 9.03027C168.21 9.3916 168.861 9.83724 169.463 10.3672C170.065 10.8851 170.595 11.4692 171.053 12.1196L161.803 23.2666ZM164.332 13.0952C164.103 13.0109 163.874 12.9567 163.646 12.9326C163.429 12.9085 163.2 12.8965 162.959 12.8965C162.285 12.8965 161.646 13.0229 161.044 13.2759C160.454 13.5168 159.936 13.866 159.49 14.3237C159.057 14.7814 158.713 15.3354 158.46 15.9858C158.208 16.6242 158.081 17.3468 158.081 18.1538C158.081 18.3345 158.087 18.5392 158.099 18.7681C158.123 18.9969 158.153 19.2318 158.189 19.4727C158.238 19.7015 158.292 19.9243 158.352 20.1411C158.412 20.3579 158.491 20.5506 158.587 20.7192L164.332 13.0952Z" fill="black"/>
</svg>
