<svg width="48" height="51" viewBox="0 0 48 51" fill="none" xmlns="http://www.w3.org/2000/svg">
<path d="M45.0713 33.9316L40.7671 37.9956L28.6953 25.4434L41.0474 13.832L45.0313 18.2764L36.8633 25.6836L45.0713 33.9316Z" fill="#364954"/>
<path d="M25.3545 13.2656H29.3057L29.3057 38.4629H25.3545L25.3545 13.2656Z" fill="#364954"/>
<path d="M25.3545 13.2656V12.2656H24.3545V13.2656H25.3545ZM29.3057 13.2656H30.3057V12.2656H29.3057V13.2656ZM29.3057 38.4629V39.4629H30.3057V38.4629H29.3057ZM25.3545 38.4629H24.3545V39.4629H25.3545V38.4629ZM25.3545 14.2656H29.3057V12.2656H25.3545V14.2656ZM28.3057 13.2656L28.3057 38.4629H30.3057L30.3057 13.2656H28.3057ZM29.3057 37.4629H25.3545V39.4629H29.3057V37.4629ZM26.3545 38.4629L26.3545 13.2656H24.3545L24.3545 38.4629H26.3545Z" fill="#364954"/>
</svg>
