<svg width="23" height="23" viewBox="0 0 23 23" fill="none" xmlns="http://www.w3.org/2000/svg">
<path opacity="0.2" d="M0.705898 10.6061C0.518362 10.7937 0.413005 11.048 0.413005 11.3132C0.413005 11.5785 0.518362 11.8328 0.705898 12.0204L4.24143 15.5559C4.42897 15.7434 4.68332 15.8488 4.94854 15.8488C5.21376 15.8488 5.46811 15.7434 5.65565 15.5559C5.84318 15.3683 5.94854 15.114 5.94854 14.8488C5.94854 14.5836 5.84318 14.3292 5.65565 14.1417L3.83838 12.3244L8.48407 12.3173C8.61608 12.3179 8.74689 12.2923 8.86896 12.242C8.99103 12.1917 9.10193 12.1178 9.19528 12.0245C9.28863 11.9311 9.36257 11.8202 9.41284 11.6981C9.4631 11.5761 9.48871 11.4453 9.48816 11.3132C9.48871 11.1812 9.4631 11.0504 9.41284 10.9284C9.36257 10.8063 9.28863 10.6954 9.19528 10.602C9.10193 10.5087 8.99103 10.4348 8.86896 10.3845C8.74689 10.3342 8.61608 10.3086 8.48407 10.3092H3.83131L5.65565 8.48482C5.84318 8.29728 5.94854 8.04293 5.94854 7.77771C5.94854 7.5125 5.84318 7.25814 5.65565 7.0706C5.46811 6.88307 5.21375 6.77771 4.94854 6.77771C4.68332 6.77771 4.42897 6.88307 4.24143 7.0706L0.705898 10.6061ZM13.1368 11.3132C13.1363 11.4453 13.1619 11.5761 13.2122 11.6981C13.2624 11.8202 13.3364 11.9311 13.4297 12.0245C13.5231 12.1178 13.634 12.1917 13.756 12.242C13.8781 12.2923 14.0089 12.3179 14.1409 12.3173L18.7866 12.3244L16.9694 14.1417C16.7818 14.3292 16.6765 14.5836 16.6765 14.8488C16.6765 15.114 16.7818 15.3683 16.9694 15.5559C17.1569 15.7434 17.4112 15.8488 17.6765 15.8488C17.9417 15.8488 18.196 15.7434 18.3836 15.5559L21.9191 12.0204C22.1066 11.8328 22.212 11.5785 22.212 11.3132C22.212 11.048 22.1066 10.7937 21.9191 10.6061L18.3836 7.0706C18.196 6.88307 17.9417 6.77771 17.6765 6.77771C17.4112 6.77771 17.1569 6.88307 16.9694 7.0706C16.7818 7.25814 16.6765 7.5125 16.6765 7.77771C16.6765 8.04293 16.7818 8.29728 16.9694 8.48482L18.7937 10.3092H14.1409C14.0089 10.3086 13.8781 10.3342 13.756 10.3845C13.634 10.4348 13.5231 10.5087 13.4297 10.602C13.3364 10.6954 13.2624 10.8063 13.2122 10.9284C13.1619 11.0504 13.1363 11.1812 13.1368 11.3132Z" fill="black"/>
</svg>
