<svg width="13" height="50" viewBox="0 0 13 50" fill="none" xmlns="http://www.w3.org/2000/svg">
<path d="M6.46387 37.7461C7.2959 37.7461 8.08171 37.8963 8.82129 38.1968C9.53776 38.4972 10.1618 38.9132 10.6934 39.4448C11.2249 39.9764 11.641 40.6004 11.9414 41.3169C12.265 42.0334 12.4268 42.8076 12.4268 43.6396C12.4268 44.4486 12.265 45.2228 11.9414 45.9624C11.641 46.6789 11.2249 47.3145 10.6934 47.8691C10.1618 48.4007 9.53776 48.8283 8.82129 49.1519C8.08171 49.4523 7.2959 49.6025 6.46387 49.6025C5.65495 49.6025 4.89225 49.4523 4.17578 49.1519C3.45931 48.8283 2.83529 48.4007 2.30371 47.8691C1.77214 47.3145 1.35612 46.6789 1.05566 45.9624C0.732096 45.2228 0.570312 44.4486 0.570312 43.6396C0.570312 42.8076 0.732096 42.0334 1.05566 41.3169C1.35612 40.6004 1.77214 39.9764 2.30371 39.4448C2.83529 38.9132 3.45931 38.4972 4.17578 38.1968C4.89225 37.8963 5.65495 37.7461 6.46387 37.7461ZM6.46387 19.0254C7.2959 19.0254 8.08171 19.1756 8.82129 19.4761C9.53776 19.7765 10.1618 20.1925 10.6934 20.7241C11.2249 21.2557 11.641 21.8797 11.9414 22.5962C12.265 23.3127 12.4268 24.0869 12.4268 24.9189C12.4268 25.7279 12.265 26.5021 11.9414 27.2417C11.641 27.9582 11.2249 28.5938 10.6934 29.1484C10.1618 29.68 9.53776 30.1076 8.82129 30.4312C8.08171 30.7316 7.2959 30.8818 6.46387 30.8818C5.65495 30.8818 4.89225 30.7316 4.17578 30.4312C3.45931 30.1076 2.83529 29.68 2.30371 29.1484C1.77214 28.5938 1.35612 27.9582 1.05566 27.2417C0.732096 26.5021 0.570312 25.7279 0.570312 24.9189C0.570312 24.0869 0.732096 23.3127 1.05566 22.5962C1.35612 21.8797 1.77214 21.2557 2.30371 20.7241C2.83529 20.1925 3.45931 19.7765 4.17578 19.4761C4.89225 19.1756 5.65495 19.0254 6.46387 19.0254ZM6.46387 0.304688C7.2959 0.304688 8.08171 0.454915 8.82129 0.755371C9.53776 1.05583 10.1618 1.47184 10.6934 2.00342C11.2249 2.53499 11.641 3.15902 11.9414 3.87549C12.265 4.59196 12.4268 5.36621 12.4268 6.19824C12.4268 7.00716 12.265 7.78141 11.9414 8.521C11.641 9.23747 11.2249 9.87305 10.6934 10.4277C10.1618 10.9593 9.53776 11.3869 8.82129 11.7104C8.08171 12.0109 7.2959 12.1611 6.46387 12.1611C5.65495 12.1611 4.89225 12.0109 4.17578 11.7104C3.45931 11.3869 2.83529 10.9593 2.30371 10.4277C1.77214 9.87305 1.35612 9.23747 1.05566 8.521C0.732096 7.78141 0.570312 7.00716 0.570312 6.19824C0.570312 5.36621 0.732096 4.59196 1.05566 3.87549C1.35612 3.15902 1.77214 2.53499 2.30371 2.00342C2.83529 1.47184 3.45931 1.05583 4.17578 0.755371C4.89225 0.454915 5.65495 0.304688 6.46387 0.304688Z" fill="#364954"/>
</svg>
