<svg width="38" height="38" viewBox="0 0 38 38" fill="none" xmlns="http://www.w3.org/2000/svg">
<path d="M0 2.71429C0 1.99441 0.285968 1.30402 0.794996 0.794996C1.30402 0.285968 1.99441 0 2.71429 0H8.14286C8.86273 0 9.55312 0.285968 10.0621 0.794996C10.5712 1.30402 10.8571 1.99441 10.8571 2.71429V8.14286C10.8571 8.86273 10.5712 9.55312 10.0621 10.0621C9.55312 10.5712 8.86273 10.8571 8.14286 10.8571H2.71429C1.99441 10.8571 1.30402 10.5712 0.794996 10.0621C0.285968 9.55312 0 8.86273 0 8.14286V2.71429ZM13.5714 2.71429C13.5714 1.99441 13.8574 1.30402 14.3664 0.794996C14.8755 0.285968 15.5658 0 16.2857 0H21.7143C22.4342 0 23.1245 0.285968 23.6336 0.794996C24.1426 1.30402 24.4286 1.99441 24.4286 2.71429V8.14286C24.4286 8.86273 24.1426 9.55312 23.6336 10.0621C23.1245 10.5712 22.4342 10.8571 21.7143 10.8571H16.2857C15.5658 10.8571 14.8755 10.5712 14.3664 10.0621C13.8574 9.55312 13.5714 8.86273 13.5714 8.14286V2.71429ZM27.1429 2.71429C27.1429 1.99441 27.4288 1.30402 27.9379 0.794996C28.4469 0.285968 29.1373 0 29.8571 0H35.2857C36.0056 0 36.696 0.285968 37.205 0.794996C37.714 1.30402 38 1.99441 38 2.71429V8.14286C38 8.86273 37.714 9.55312 37.205 10.0621C36.696 10.5712 36.0056 10.8571 35.2857 10.8571H29.8571C29.1373 10.8571 28.4469 10.5712 27.9379 10.0621C27.4288 9.55312 27.1429 8.86273 27.1429 8.14286V2.71429ZM0 16.2857C0 15.5658 0.285968 14.8755 0.794996 14.3664C1.30402 13.8574 1.99441 13.5714 2.71429 13.5714H8.14286C8.86273 13.5714 9.55312 13.8574 10.0621 14.3664C10.5712 14.8755 10.8571 15.5658 10.8571 16.2857V21.7143C10.8571 22.4342 10.5712 23.1245 10.0621 23.6336C9.55312 24.1426 8.86273 24.4286 8.14286 24.4286H2.71429C1.99441 24.4286 1.30402 24.1426 0.794996 23.6336C0.285968 23.1245 0 22.4342 0 21.7143V16.2857ZM13.5714 16.2857C13.5714 15.5658 13.8574 14.8755 14.3664 14.3664C14.8755 13.8574 15.5658 13.5714 16.2857 13.5714H21.7143C22.4342 13.5714 23.1245 13.8574 23.6336 14.3664C24.1426 14.8755 24.4286 15.5658 24.4286 16.2857V21.7143C24.4286 22.4342 24.1426 23.1245 23.6336 23.6336C23.1245 24.1426 22.4342 24.4286 21.7143 24.4286H16.2857C15.5658 24.4286 14.8755 24.1426 14.3664 23.6336C13.8574 23.1245 13.5714 22.4342 13.5714 21.7143V16.2857ZM27.1429 16.2857C27.1429 15.5658 27.4288 14.8755 27.9379 14.3664C28.4469 13.8574 29.1373 13.5714 29.8571 13.5714H35.2857C36.0056 13.5714 36.696 13.8574 37.205 14.3664C37.714 14.8755 38 15.5658 38 16.2857V21.7143C38 22.4342 37.714 23.1245 37.205 23.6336C36.696 24.1426 36.0056 24.4286 35.2857 24.4286H29.8571C29.1373 24.4286 28.4469 24.1426 27.9379 23.6336C27.4288 23.1245 27.1429 22.4342 27.1429 21.7143V16.2857ZM0 29.8571C0 29.1373 0.285968 28.4469 0.794996 27.9379C1.30402 27.4288 1.99441 27.1429 2.71429 27.1429H8.14286C8.86273 27.1429 9.55312 27.4288 10.0621 27.9379C10.5712 28.4469 10.8571 29.1373 10.8571 29.8571V35.2857C10.8571 36.0056 10.5712 36.696 10.0621 37.205C9.55312 37.714 8.86273 38 8.14286 38H2.71429C1.99441 38 1.30402 37.714 0.794996 37.205C0.285968 36.696 0 36.0056 0 35.2857V29.8571ZM13.5714 29.8571C13.5714 29.1373 13.8574 28.4469 14.3664 27.9379C14.8755 27.4288 15.5658 27.1429 16.2857 27.1429H21.7143C22.4342 27.1429 23.1245 27.4288 23.6336 27.9379C24.1426 28.4469 24.4286 29.1373 24.4286 29.8571V35.2857C24.4286 36.0056 24.1426 36.696 23.6336 37.205C23.1245 37.714 22.4342 38 21.7143 38H16.2857C15.5658 38 14.8755 37.714 14.3664 37.205C13.8574 36.696 13.5714 36.0056 13.5714 35.2857V29.8571ZM27.1429 29.8571C27.1429 29.1373 27.4288 28.4469 27.9379 27.9379C28.4469 27.4288 29.1373 27.1429 29.8571 27.1429H35.2857C36.0056 27.1429 36.696 27.4288 37.205 27.9379C37.714 28.4469 38 29.1373 38 29.8571V35.2857C38 36.0056 37.714 36.696 37.205 37.205C36.696 37.714 36.0056 38 35.2857 38H29.8571C29.1373 38 28.4469 37.714 27.9379 37.205C27.4288 36.696 27.1429 36.0056 27.1429 35.2857V29.8571Z" fill="black" fill-opacity="0.5"/>
</svg>
