<svg width="32" height="31" viewBox="0 0 32 31" fill="none" xmlns="http://www.w3.org/2000/svg">
<path d="M14.6525 6.1339C15.416 5.43779 16.584 5.43779 17.3475 6.1339L24.3475 12.5163C24.7631 12.8952 25 13.4317 25 13.9942V25.5529C25 26.5471 24.1941 27.3529 23.2 27.3529C22.2059 27.3529 21.4 26.5471 21.4 25.5529V18.4118C21.4 17.3072 20.5046 16.4118 19.4 16.4118H12.6C11.4954 16.4118 10.6 17.3072 10.6 18.4118V25.5529C10.6 26.5471 9.79411 27.3529 8.8 27.3529C7.80589 27.3529 7 26.5471 7 25.5529V13.9942C7 13.4317 7.23685 12.8952 7.65249 12.5163L14.6525 6.1339ZM17.3475 1.22861C16.584 0.532492 15.416 0.532492 14.6525 1.22861L0.876044 13.7895C-0.141679 14.7174 0.514795 16.4118 1.89204 16.4118C2.72486 16.4118 3.4 17.0869 3.4 17.9197V29C3.4 30.1046 4.29543 31 5.4 31H12.2C13.3046 31 14.2 30.1046 14.2 29V21.8588C14.2 20.8647 15.0059 20.0588 16 20.0588C16.9941 20.0588 17.8 20.8647 17.8 21.8588V29C17.8 30.1046 18.6954 31 19.8 31H26.6C27.7046 31 28.6 30.1046 28.6 29V17.9197C28.6 17.0869 29.2751 16.4118 30.108 16.4118C31.4852 16.4118 32.1417 14.7174 31.124 13.7895L17.3475 1.22861Z" fill="#C4C4C4" fill-opacity="0.49"/>
</svg>
