<svg width="32" height="31" viewBox="0 0 32 31" fill="none" xmlns="http://www.w3.org/2000/svg">
<path d="M18.6507 0.287999C21.3253 0.287999 23.66 0.797999 25.6547 1.818C27.6493 2.81533 29.1793 4.232 30.2447 6.068C31.3327 7.88133 31.8767 9.978 31.8767 12.358C31.8767 14.2847 31.5367 16.0753 30.8567 17.73C30.1993 19.3847 29.2133 20.7107 27.8987 21.708C26.6067 22.6827 25.0653 23.17 23.2747 23.17C22.0733 23.17 21.076 22.932 20.2827 22.456C19.512 21.98 18.9907 21.3113 18.7187 20.45C18.084 21.334 17.268 22.0253 16.2707 22.524C15.2733 23 14.1853 23.238 13.0067 23.238C11.3293 23.238 10.0033 22.7393 9.02867 21.742C8.07667 20.722 7.60067 19.3393 7.60067 17.594C7.60067 15.9393 7.94067 14.3867 8.62067 12.936C9.30067 11.4627 10.2413 10.284 11.4427 9.4C12.644 8.516 13.9927 8.074 15.4887 8.074C17.3927 8.074 18.6847 8.754 19.3647 10.114L19.6707 8.312H24.3627L22.8667 16.846C22.7987 17.254 22.7647 17.6167 22.7647 17.934C22.7647 18.9313 23.2067 19.43 24.0907 19.43C25.1787 19.43 26.006 18.7387 26.5727 17.356C27.162 15.9507 27.4567 14.3413 27.4567 12.528C27.4567 9.92133 26.6293 7.88133 24.9747 6.408C23.3427 4.93467 21.042 4.198 18.0727 4.198C15.534 4.198 13.222 4.81 11.1367 6.034C9.07401 7.258 7.45334 8.93533 6.27467 11.066C5.09601 13.174 4.50667 15.4973 4.50667 18.036C4.50667 20.7787 5.30001 22.9093 6.88667 24.428C8.49601 25.9467 10.74 26.706 13.6187 26.706C15.8627 26.706 17.8687 26.298 19.6367 25.482L20.5547 29.188C18.3333 30.1627 15.84 30.65 13.0747 30.65C10.4907 30.65 8.21267 30.1513 6.24067 29.154C4.29134 28.1567 2.78401 26.74 1.71867 24.904C0.653339 23.068 0.120672 20.926 0.120672 18.478C0.120672 15.0553 0.925339 11.9613 2.53467 9.196C4.14401 6.408 6.35401 4.232 9.16467 2.668C11.998 1.08133 15.16 0.287999 18.6507 0.287999ZM14.9107 19.056C15.5453 19.056 16.1347 18.8633 16.6787 18.478C17.2453 18.0927 17.6873 17.5827 18.0047 16.948C18.3447 16.2907 18.5147 15.588 18.5147 14.84C18.5147 14.0693 18.2993 13.446 17.8687 12.97C17.438 12.4713 16.8487 12.222 16.1007 12.222C15.1033 12.222 14.276 12.6527 13.6187 13.514C12.9613 14.3753 12.6327 15.3953 12.6327 16.574C12.6327 17.322 12.8253 17.9227 13.2107 18.376C13.596 18.8293 14.1627 19.056 14.9107 19.056Z" fill="#A6A6A6"/>
</svg>
