<svg width="34" height="38" viewBox="0 0 34 38" fill="none" xmlns="http://www.w3.org/2000/svg">
<path d="M13.4981 2.36084C13.7803 1.66331 14.2644 1.06595 14.8883 0.645329C15.5122 0.224711 16.2475 0 17 0C17.7525 0 18.4878 0.224711 19.1117 0.645329C19.7356 1.06595 20.2197 1.66331 20.5019 2.36084C23.2951 3.12901 25.7589 4.79285 27.5148 7.09684C29.2708 9.40083 30.2219 12.2175 30.222 15.1144V23.9864L33.6824 29.1769C33.8722 29.4614 33.9812 29.7921 33.9978 30.1336C34.0144 30.4752 33.9379 30.8148 33.7766 31.1164C33.6153 31.4179 33.3751 31.6699 33.0818 31.8457C32.7884 32.0214 32.4528 32.1142 32.1109 32.1141H23.5449C23.3175 33.6877 22.5307 35.1267 21.3287 36.1675C20.1267 37.2083 18.59 37.7811 17 37.7811C15.41 37.7811 13.8733 37.2083 12.6713 36.1675C11.4693 35.1267 10.6825 33.6877 10.4551 32.1141H1.88914C1.54718 32.1142 1.21161 32.0214 0.918251 31.8457C0.624888 31.6699 0.384733 31.4179 0.223406 31.1164C0.0620792 30.8148 -0.0143662 30.4752 0.00222479 30.1336C0.0188158 29.7921 0.127821 29.4614 0.317611 29.1769L3.778 23.9864V15.1144C3.778 9.02473 7.89571 3.89459 13.4981 2.36084ZM14.3292 32.1141C14.5242 32.6669 14.886 33.1456 15.3645 33.4841C15.843 33.8227 16.4148 34.0045 17.0009 34.0045C17.5871 34.0045 18.1589 33.8227 18.6374 33.4841C19.1159 33.1456 19.4777 32.6669 19.6727 32.1141H14.3273H14.3292ZM17 5.67012C14.4952 5.67012 12.093 6.66514 10.3219 8.43629C8.55073 10.2074 7.55571 12.6096 7.55571 15.1144V24.5587C7.5558 24.9318 7.44538 25.2966 7.23838 25.607L5.41941 28.3364H28.5787L26.7597 25.607C26.5534 25.2964 26.4436 24.9316 26.4443 24.5587V15.1144C26.4443 12.6096 25.4493 10.2074 23.6781 8.43629C21.907 6.66514 19.5048 5.67012 17 5.67012Z" fill="black"/>
</svg>
