<svg width="29" height="26" viewBox="0 0 29 26" fill="none" xmlns="http://www.w3.org/2000/svg">
<path fill-rule="evenodd" clip-rule="evenodd" d="M8.66645 11.5556C10.1988 11.5556 11.6684 10.9468 12.752 9.86328C13.8355 8.77974 14.4442 7.31014 14.4442 5.77778C14.4442 4.24542 13.8355 2.77582 12.752 1.69227C11.6684 0.608728 10.1988 0 8.66645 0C7.13409 0 5.66449 0.608728 4.58094 1.69227C3.4974 2.77582 2.88867 4.24542 2.88867 5.77778C2.88867 7.31014 3.4974 8.77974 4.58094 9.86328C5.66449 10.9468 7.13409 11.5556 8.66645 11.5556ZM8.66645 8.66667C9.43263 8.66667 10.1674 8.3623 10.7092 7.82053C11.251 7.27876 11.5553 6.54396 11.5553 5.77778C11.5553 5.0116 11.251 4.2768 10.7092 3.73502C10.1674 3.19325 9.43263 2.88889 8.66645 2.88889C7.90027 2.88889 7.16547 3.19325 6.6237 3.73502C6.08192 4.2768 5.77756 5.0116 5.77756 5.77778C5.77756 6.54396 6.08192 7.27876 6.6237 7.82053C7.16547 8.3623 7.90027 8.66667 8.66645 8.66667Z" fill="#A6A6A6"/>
<path d="M13 15.8889C13.3831 15.8889 13.7505 16.0411 14.0214 16.312C14.2923 16.5828 14.4444 16.9502 14.4444 17.3333V26H17.3333V17.3333C17.3333 16.1841 16.8768 15.0819 16.0641 14.2692C15.2515 13.4565 14.1493 13 13 13H4.33333C3.18406 13 2.08186 13.4565 1.2692 14.2692C0.456546 15.0819 0 16.1841 0 17.3333V26H2.88889V17.3333C2.88889 16.9502 3.04107 16.5828 3.31196 16.312C3.58284 16.0411 3.95024 15.8889 4.33333 15.8889H13Z" fill="#A6A6A6"/>
<path d="M28.8893 8.66602H20.2227V11.5549H28.8893V8.66602Z" fill="#A6A6A6"/>
</svg>
