<svg width="33" height="33" viewBox="0 0 33 33" fill="none" xmlns="http://www.w3.org/2000/svg">
<g opacity="0.35">
<path d="M8.58951 19.2985C8.70834 19.4173 8.90382 19.4173 9.02264 19.2985L12.9247 15.3965L16.2249 18.7005C16.3437 18.8193 16.5392 18.8193 16.658 18.7005L25.3321 10.0187C25.4509 9.89991 25.4509 9.70443 25.3321 9.58561L23.9216 8.17506C23.8027 8.05623 23.6073 8.05623 23.4884 8.17506L16.4434 15.2278L13.1431 11.9237C13.0243 11.8049 12.8288 11.8049 12.71 11.9237L7.17896 17.4548C7.06014 17.5736 7.06014 17.7691 7.17896 17.8879L8.58951 19.2985Z" fill="black"/>
<path d="M31.2774 2.75977H17.6319V0.306641C17.6319 0.137989 17.4939 0 17.3252 0H15.1787C15.0101 0 14.8721 0.137989 14.8721 0.306641V2.75977H1.22656C0.548121 2.75977 0 3.30789 0 3.98634V23.918C0 24.5965 0.548121 25.1446 1.22656 25.1446H14.8874V26.3711L8.57062 30.5146C8.4288 30.6066 8.39047 30.7944 8.48246 30.9363L9.64387 32.7454V32.7493C9.73586 32.8911 9.92751 32.9294 10.0693 32.8374L16.252 28.7821L22.4346 32.8374C22.5765 32.9294 22.7681 32.8911 22.8601 32.7493V32.7454L24.0215 30.9363C24.1135 30.7944 24.0713 30.6066 23.9333 30.5146L17.6319 26.3826V25.1446H31.2774C31.9558 25.1446 32.504 24.5965 32.504 23.918V3.98634C32.504 3.30789 31.9558 2.75977 31.2774 2.75977ZM29.7442 22.3848H2.75977V5.51954H29.7442V22.3848Z" fill="black"/>
</g>
</svg>
