<svg width="39" height="39" viewBox="0 0 39 39" fill="none" xmlns="http://www.w3.org/2000/svg">
<path opacity="0.2" d="M18.6062 20.2524L12.8419 26.0168C12.6188 26.2398 12.3443 26.3513 12.0184 26.3513C11.6924 26.3513 11.4179 26.2398 11.1949 26.0168C10.9719 25.7938 10.8604 25.5193 10.8604 25.1933L10.8604 21.4877L2.31677 21.4877C2.14521 21.4877 2.00367 21.4319 1.89216 21.3204C1.78065 21.2089 1.72489 21.0673 1.72489 20.8958L1.72489 17.9621C1.72489 17.7906 1.78065 17.649 1.89216 17.5375C2.00367 17.426 2.14521 17.3703 2.31677 17.3703L10.8604 17.3703V13.6646C10.8604 13.3386 10.9719 13.0641 11.1949 12.8411C11.4179 12.6181 11.6924 12.5066 12.0184 12.5066C12.3443 12.5066 12.6188 12.6181 12.8419 12.8411L18.6062 18.6055C18.8292 18.8285 18.9407 19.103 18.9407 19.429C18.9407 19.7549 18.8292 20.0294 18.6062 20.2524ZM36.9672 21.3204C36.8557 21.4319 36.7142 21.4877 36.5426 21.4877L27.999 21.4877L27.999 25.1933C27.999 25.5193 27.8875 25.7938 27.6645 26.0168C27.4415 26.2398 27.167 26.3513 26.841 26.3513C26.515 26.3513 26.2405 26.2398 26.0175 26.0168L20.2532 20.2524C20.0301 20.0294 19.9186 19.7549 19.9186 19.429C19.9186 19.103 20.0301 18.8285 20.2532 18.6055L26.0175 12.8411C26.2405 12.6181 26.515 12.5066 26.841 12.5066C27.167 12.5066 27.4415 12.6181 27.6645 12.8411C27.8875 13.0641 27.999 13.3386 27.999 13.6646V17.3703L36.5426 17.3703C36.7142 17.3703 36.8557 17.426 36.9672 17.5375C37.0787 17.649 37.1345 17.7906 37.1345 17.9621L37.1345 20.8958C37.1345 21.0673 37.0787 21.2089 36.9672 21.3204Z" fill="black"/>
</svg>
