<svg width="46" height="52" viewBox="0 0 46 52" fill="none" xmlns="http://www.w3.org/2000/svg">
<path d="M12.156 30.2875C12.3242 30.474 12.6008 30.474 12.769 30.2875L18.2912 24.164L22.9617 29.3491C23.1299 29.5356 23.4065 29.5356 23.5747 29.3491L35.8504 15.7246C36.0185 15.5381 36.0185 15.2313 35.8504 15.0449L33.8542 12.8313C33.686 12.6448 33.4093 12.6448 33.2412 12.8313L23.2709 23.8993L18.6004 18.7142C18.4322 18.5277 18.1556 18.5277 17.9874 18.7142L10.1598 27.3942C9.99165 27.5807 9.99165 27.8874 10.1598 28.0739L12.156 30.2875Z" fill="black"/>
<path d="M44.2641 4.33098H24.9528V0.48122C24.9528 0.216549 24.7575 0 24.5189 0H21.4811C21.2425 0 21.0472 0.216549 21.0472 0.48122V4.33098H1.73585C0.775707 4.33098 0 5.19116 0 6.25586V37.5352C0 38.5999 0.775707 39.46 1.73585 39.46H21.0689V41.3849L12.1292 47.8874C11.9285 48.0318 11.8743 48.3265 12.0045 48.5491L13.6481 51.3883V51.3943C13.7783 51.6169 14.0495 51.677 14.2502 51.5327L23 45.1685L31.7498 51.5327C31.9505 51.677 32.2217 51.6169 32.3519 51.3943V51.3883L33.9955 48.5491C34.1257 48.3265 34.066 48.0318 33.8708 47.8874L24.9528 41.403V39.46H44.2641C45.2243 39.46 46 38.5999 46 37.5352V6.25586C46 5.19116 45.2243 4.33098 44.2641 4.33098ZM42.0943 35.1291H3.90566V8.66196H42.0943V35.1291Z" fill="black"/>
</svg>
