<svg width="58" height="58" viewBox="0 0 58 58" fill="none" xmlns="http://www.w3.org/2000/svg">
<path d="M43.5 23.1094C43.5 23.9334 43.1726 24.7238 42.5899 25.3065C42.0072 25.8892 41.2169 26.2165 40.3929 26.2165C39.5688 26.2165 38.7785 25.8892 38.1958 25.3065C37.6131 24.7238 37.2857 23.9334 37.2857 23.1094C37.2857 22.2853 37.6131 21.495 38.1958 20.9123C38.7785 20.3296 39.5688 20.0022 40.3929 20.0022C41.2169 20.0022 42.0072 20.3296 42.5899 20.9123C43.1726 21.495 43.5 22.2853 43.5 23.1094ZM20.7143 23.1094C20.7143 23.9334 20.3869 24.7238 19.8042 25.3065C19.2215 25.8892 18.4312 26.2165 17.6071 26.2165C16.7831 26.2165 15.9928 25.8892 15.4101 25.3065C14.8274 24.7238 14.5 23.9334 14.5 23.1094C14.5 22.2853 14.8274 21.495 15.4101 20.9123C15.9928 20.3296 16.7831 20.0022 17.6071 20.0022C18.4312 20.0022 19.2215 20.3296 19.8042 20.9123C20.3869 21.495 20.7143 22.2853 20.7143 23.1094ZM29 0C45.0147 0 58 12.9853 58 29C58 45.0147 45.0147 58 29 58C12.9853 58 0 45.0147 0 29C0 12.9853 12.9853 0 29 0ZM11.9754 46.0246C14.1893 48.2384 16.7656 49.9732 19.6333 51.1902C22.5915 52.446 25.744 53.0804 29 53.0804C32.256 53.0804 35.4085 52.446 38.3732 51.1902C41.2365 49.9809 43.8374 48.2265 46.031 46.0246C48.2449 43.8107 49.9797 41.2344 51.1967 38.3667C52.446 35.4085 53.0804 32.256 53.0804 29C53.0804 25.744 52.446 22.5915 51.1902 19.6268C49.9809 16.7635 48.2265 14.1626 46.0246 11.969C43.8107 9.75513 41.2344 8.02031 38.3667 6.80335C35.4085 5.55402 32.256 4.91964 29 4.91964C25.744 4.91964 22.5915 5.55402 19.6268 6.80982C16.7635 8.01907 14.1626 9.7735 11.969 11.9754C9.75513 14.1893 8.02031 16.7656 6.80335 19.6333C5.55402 22.5915 4.91964 25.744 4.91964 29C4.91964 32.256 5.55402 35.4085 6.80982 38.3732C8.0176 41.2354 9.77226 43.8344 11.9754 46.0246ZM19.1607 30.3594H22.2743C22.5462 30.3594 22.7792 30.5665 22.7987 30.8384C23.0446 34.0426 25.731 36.5737 29 36.5737C32.269 36.5737 34.9618 34.0426 35.2013 30.8384C35.2208 30.5665 35.4538 30.3594 35.7257 30.3594H38.8393C38.9095 30.3593 38.9791 30.3735 39.0436 30.4011C39.1082 30.4287 39.1665 30.4692 39.2149 30.5201C39.2634 30.571 39.301 30.6311 39.3254 30.697C39.3499 30.7628 39.3607 30.833 39.3571 30.9031C39.0723 36.36 34.5346 40.7165 29 40.7165C23.4654 40.7165 18.9277 36.36 18.6429 30.9031C18.6393 30.833 18.6501 30.7628 18.6746 30.697C18.699 30.6311 18.7366 30.571 18.7851 30.5201C18.8335 30.4692 18.8918 30.4287 18.9564 30.4011C19.021 30.3735 19.0905 30.3593 19.1607 30.3594Z"/>
</svg>
