<svg width="47" height="40" viewBox="0 0 47 40" fill="none" xmlns="http://www.w3.org/2000/svg">
<path d="M44.0625 11.4286C42.349 11.4286 40.4365 10.9524 38.3252 10C40.1917 13.0952 41.125 16.4286 41.125 20C41.125 22.7083 40.5819 25.2976 39.4956 27.7679C38.4093 30.2381 36.9482 32.3661 35.1123 34.1518C33.2764 35.9375 31.0885 37.3586 28.5488 38.4152C26.0091 39.4717 23.347 40 20.5625 40C17.778 40 15.1159 39.4717 12.5762 38.4152C10.0365 37.3586 7.84863 35.9375 6.0127 34.1518C4.17676 32.3661 2.71566 30.2381 1.62939 27.7679C0.543132 25.2976 0 22.7083 0 20C0 17.2917 0.543132 14.7024 1.62939 12.2321C2.71566 9.76191 4.17676 7.63393 6.0127 5.84821C7.84863 4.0625 10.0365 2.64137 12.5762 1.58482C15.1159 0.528274 17.778 0 20.5625 0C25.2135 0 29.4056 1.39881 33.1387 4.19643C34.026 3.42262 35.0052 2.62649 36.0762 1.80804C37.1471 0.989583 37.8509 0.47619 38.1875 0.267857C38.6771 0 39.1743 -0.0669643 39.6792 0.0669643C40.1841 0.200893 40.5666 0.505952 40.8267 0.982143C41.0868 1.45833 41.1479 1.96429 41.0103 2.5C40.8726 3.03571 40.5742 3.4375 40.1152 3.70536C39.1973 4.27083 37.5602 5.01488 35.2041 5.9375C35.2041 5.96726 35.2118 5.98958 35.2271 6.00446C35.2424 6.01935 35.2653 6.02679 35.2959 6.02679C36.9482 6.32441 38.8148 6.73363 40.8955 7.25446C42.9762 7.7753 44.5215 8.21429 45.5312 8.57143C46.5104 8.89881 47 9.375 47 10C47 10.3869 46.7017 10.7217 46.105 11.0045C45.5083 11.2872 44.8275 11.4286 44.0625 11.4286ZM8.8125 11.4286C6.85417 13.9881 5.875 16.8452 5.875 20C5.875 20.9524 5.9668 21.9048 6.15039 22.8571H9.08789C8.9043 22.3512 8.8125 21.875 8.8125 21.4286C8.8125 20.2381 9.24089 19.2262 10.0977 18.3929C10.9544 17.5595 11.9948 17.1429 13.2188 17.1429C14.4427 17.1429 15.4831 17.5595 16.3398 18.3929C17.1966 19.2262 17.625 20.2381 17.625 21.4286C17.625 21.875 17.5332 22.3512 17.3496 22.8571H23.7754C23.5918 22.3512 23.5 21.875 23.5 21.4286C23.5 20.2381 23.9284 19.2262 24.7852 18.3929C25.6419 17.5595 26.6823 17.1429 27.9062 17.1429C29.1302 17.1429 30.1706 17.5595 31.0273 18.3929C31.8841 19.2262 32.3125 20.2381 32.3125 21.4286C32.3125 21.875 32.2207 22.3512 32.0371 22.8571H34.9287C35.1429 21.9048 35.25 20.9524 35.25 20C35.25 16.8452 34.2555 13.9881 32.2666 11.4286H8.8125Z" fill="black"/>
</svg>
