<svg width="34" height="34" viewBox="0 0 34 34" fill="none" xmlns="http://www.w3.org/2000/svg">
<path d="M25.3333 8.66667H28.6667C29.5507 8.66667 30.3986 9.01786 31.0237 9.64298C31.6488 10.2681 32 11.1159 32 12V22C32 22.8841 31.6488 23.7319 31.0237 24.357C30.3986 24.9821 29.5507 25.3333 28.6667 25.3333H25.3333V32L18.6667 25.3333H12C11.5622 25.3338 11.1287 25.2477 10.7242 25.0801C10.3198 24.9125 9.95246 24.6667 9.64333 24.3567L25.3333 8.66667ZM9.64333 24.3567L15.3333 18.6667H22C22.8841 18.6667 23.7319 18.3155 24.357 17.6904C24.9821 17.0652 25.3333 16.2174 25.3333 15.3333V5.33333C25.3333 4.44928 24.9821 3.60143 24.357 2.97631C23.7319 2.35119 22.8841 2 22 2H5.33333C4.44928 2 3.60143 2.35119 2.97631 2.97631C2.35119 3.60143 2 4.44928 2 5.33333V15.3333C2 16.2174 2.35119 17.0652 2.97631 17.6904C3.60143 18.3155 4.44928 18.6667 5.33333 18.6667H8.66667V25.3333L9.64333 24.3567Z" stroke="black" stroke-width="4" stroke-linecap="round" stroke-linejoin="round"/>
</svg>
