<svg width="53" height="35" viewBox="0 0 53 35" fill="none" xmlns="http://www.w3.org/2000/svg">
<path d="M26.5274 23.4249C28.6021 21.7052 30.0897 19.3987 30.7887 16.8182C31.4876 14.2377 31.3641 11.5079 30.4348 8.99882C29.5055 6.48978 27.8154 4.32285 25.5936 2.79175C23.3718 1.26066 20.7257 0.439453 18.0141 0.439453C15.3024 0.439453 12.6564 1.26066 10.4346 2.79175C8.21274 4.32285 6.52264 6.48978 5.59334 8.99882C4.66404 11.5079 4.5405 14.2377 5.23945 16.8182C5.93841 19.3987 7.42605 21.7052 9.50074 23.4249C6.13578 24.924 3.23942 27.2827 1.11219 30.2562C0.924765 30.5184 0.791609 30.8144 0.720322 31.1272C0.649034 31.4401 0.64101 31.7637 0.696708 32.0796C0.752406 32.3956 0.870736 32.6976 1.04494 32.9685C1.21914 33.2393 1.44581 33.4738 1.712 33.6584C2.2496 34.0312 2.91554 34.1784 3.56332 34.0676C4.21111 33.9568 4.78768 33.5971 5.16619 33.0676C6.61513 31.0372 8.53884 29.38 10.7749 28.2359C13.0109 27.0919 15.4936 26.4946 18.0134 26.4945C20.5331 26.4944 23.0159 27.0915 25.252 28.2354C27.4882 29.3792 29.412 31.0363 30.8611 33.0666C31.0486 33.3288 31.2866 33.552 31.5616 33.7236C31.8366 33.8951 32.1433 34.0117 32.4641 34.0665C32.7848 34.1214 33.1134 34.1135 33.4311 34.0432C33.7487 33.973 34.0492 33.8419 34.3154 33.6572C34.5816 33.4726 34.8083 33.2382 34.9825 32.9673C35.1567 32.6964 35.275 32.3944 35.3307 32.0785C35.3864 31.7625 35.3783 31.4389 35.307 31.126C35.2357 30.8132 35.1026 30.5172 34.9151 30.255C32.788 27.282 29.8919 24.9238 26.5274 23.4249ZM9.7507 13.4723C9.7507 11.8626 10.2353 10.289 11.1433 8.95062C12.0513 7.61219 13.3419 6.56902 14.8518 5.95301C16.3617 5.337 18.0232 5.17582 19.6262 5.48986C21.2291 5.8039 22.7015 6.57905 23.8571 7.71729C25.0128 8.85552 25.7998 10.3057 26.1187 11.8845C26.4375 13.4633 26.2739 15.0997 25.6484 16.5869C25.023 18.0741 23.9638 19.3452 22.6049 20.2395C21.246 21.1338 19.6484 21.6112 18.0141 21.6112C15.8232 21.6087 13.7229 20.7505 12.1737 19.2247C10.6246 17.6989 9.75317 15.6301 9.7507 13.4723ZM51.1568 33.6572C50.8906 33.8419 50.5901 33.9731 50.2724 34.0434C49.9548 34.1137 49.6262 34.1216 49.3054 34.0667C48.9846 34.0119 48.6779 33.8953 48.4029 33.7237C48.1279 33.5521 47.8899 33.3288 47.7025 33.0666C46.2516 31.0381 44.3275 29.3825 42.0918 28.2388C39.8562 27.0951 37.3744 26.4969 34.8552 26.4945C34.1977 26.4945 33.5672 26.2372 33.1023 25.7793C32.6374 25.3214 32.3762 24.7004 32.3762 24.0528C32.3762 23.4052 32.6374 22.7842 33.1023 22.3263C33.5672 21.8684 34.1977 21.6112 34.8552 21.6112C36.0352 21.6098 37.2012 21.3595 38.2747 20.8771C39.3483 20.3948 40.3045 19.6916 41.0791 18.8149C41.8537 17.9381 42.4286 16.9082 42.7653 15.7943C43.1019 14.6804 43.1924 13.5084 43.0307 12.3571C42.8691 11.2059 42.4589 10.1021 41.8279 9.12006C41.1969 8.13799 40.3597 7.30041 39.3726 6.66368C38.3855 6.02694 37.2713 5.60581 36.1051 5.42863C34.939 5.25144 33.7478 5.3223 32.6117 5.63644C31.9788 5.8118 31.3011 5.73233 30.7276 5.41552C30.1542 5.09872 29.732 4.57052 29.554 3.94713C29.3759 3.32374 29.4566 2.65622 29.7783 2.09142C30.0999 1.52662 30.6362 1.11081 31.2691 0.93545C34.1775 0.126745 37.2794 0.324122 40.0579 1.49469C42.8364 2.66526 45.1237 4.73831 46.5387 7.36839C47.9537 9.99846 48.4108 13.0267 47.8339 15.9485C47.257 18.8702 45.6809 21.509 43.3683 23.4251C46.7329 24.9239 49.629 27.2821 51.7563 30.255C52.1348 30.7845 52.2843 31.4403 52.1718 32.0783C52.0594 32.7163 51.6943 33.2842 51.1568 33.657V33.6572Z" fill="black"/>
</svg>
