<svg width="31" height="33" viewBox="0 0 31 33" fill="none" xmlns="http://www.w3.org/2000/svg">
<path d="M19.1591 12.6138H29.2064V19.8779H19.1591V31.2334H11.5053V19.8779H1.43006V12.6138H11.5053V1.73145H19.1591V12.6138Z" fill="#FBDD3F"/>
<path d="M19.1591 12.6138H18.1591V13.6138H19.1591V12.6138ZM29.2064 12.6138H30.2064V11.6138H29.2064V12.6138ZM29.2064 19.8779V20.8779H30.2064V19.8779H29.2064ZM19.1591 19.8779V18.8779H18.1591V19.8779H19.1591ZM19.1591 31.2334V32.2334H20.1591V31.2334H19.1591ZM11.5053 31.2334H10.5053V32.2334H11.5053V31.2334ZM11.5053 19.8779H12.5053V18.8779H11.5053V19.8779ZM1.43006 19.8779H0.430056V20.8779H1.43006V19.8779ZM1.43006 12.6138V11.6138H0.430056V12.6138H1.43006ZM11.5053 12.6138V13.6138H12.5053V12.6138H11.5053ZM11.5053 1.73145V0.731445H10.5053V1.73145H11.5053ZM19.1591 1.73145H20.1591V0.731445H19.1591V1.73145ZM19.1591 13.6138H29.2064V11.6138H19.1591V13.6138ZM28.2064 12.6138V19.8779H30.2064V12.6138H28.2064ZM29.2064 18.8779H19.1591V20.8779H29.2064V18.8779ZM18.1591 19.8779V31.2334H20.1591V19.8779H18.1591ZM19.1591 30.2334H11.5053V32.2334H19.1591V30.2334ZM12.5053 31.2334V19.8779H10.5053V31.2334H12.5053ZM11.5053 18.8779H1.43006V20.8779H11.5053V18.8779ZM2.43006 19.8779V12.6138H0.430056V19.8779H2.43006ZM1.43006 13.6138H11.5053V11.6138H1.43006V13.6138ZM12.5053 12.6138V1.73145H10.5053V12.6138H12.5053ZM11.5053 2.73145H19.1591V0.731445H11.5053V2.73145ZM18.1591 1.73145V12.6138H20.1591V1.73145H18.1591Z" fill="#C4C4C4"/>
</svg>
