<svg width="42" height="42" viewBox="0 0 42 42" fill="none" xmlns="http://www.w3.org/2000/svg">
<path d="M31.6697 10.8286H35.8067C36.9039 10.8286 37.9561 11.2645 38.732 12.0403C39.5078 12.8161 39.9436 13.8684 39.9436 14.9656V27.3765C39.9436 28.4737 39.5078 29.5259 38.732 30.3018C37.9561 31.0776 36.9039 31.5135 35.8067 31.5135H31.6697V39.7874L23.3958 31.5135H15.1218C14.5785 31.514 14.0404 31.4072 13.5385 31.1992C13.0365 30.9912 12.5807 30.6861 12.197 30.3013L31.6697 10.8286ZM12.197 30.3013L19.2588 23.2395H27.5327C28.6299 23.2395 29.6822 22.8037 30.458 22.0278C31.2338 21.252 31.6697 20.1997 31.6697 19.1026V6.69165C31.6697 5.59446 31.2338 4.54221 30.458 3.76638C29.6822 2.99055 28.6299 2.55469 27.5327 2.55469H6.8479C5.75071 2.55469 4.69846 2.99055 3.92263 3.76638C3.1468 4.54221 2.71094 5.59446 2.71094 6.69165V19.1026C2.71094 20.1997 3.1468 21.252 3.92263 22.0278C4.69846 22.8037 5.75071 23.2395 6.8479 23.2395H10.9849V31.5135L12.197 30.3013Z" stroke="#C4C4C4" stroke-width="4" stroke-linecap="round" stroke-linejoin="round"/>
</svg>
