<svg width="52" height="35" viewBox="0 0 52 35" fill="none" xmlns="http://www.w3.org/2000/svg">
<path d="M25.9727 23.8058C28.0474 22.086 29.535 19.7796 30.234 17.199C30.933 14.6185 30.8094 11.8887 29.8801 9.37968C28.9508 6.87064 27.2607 4.70371 25.0389 3.17261C22.8171 1.64152 20.171 0.820312 17.4594 0.820312C14.7477 0.820312 12.1017 1.64152 9.87986 3.17261C7.65805 4.70371 5.96795 6.87064 5.03865 9.37968C4.10936 11.8887 3.98581 14.6185 4.68477 17.199C5.38372 19.7796 6.87136 22.086 8.94605 23.8058C5.58109 25.3049 2.68473 27.6636 0.557498 30.6371C0.370077 30.8993 0.236922 31.1952 0.165634 31.5081C0.0943463 31.821 0.0863224 32.1446 0.142021 32.4605C0.197719 32.7764 0.316048 33.0784 0.490253 33.3493C0.664457 33.6202 0.891125 33.8546 1.15731 34.0392C1.69491 34.412 2.36085 34.5592 3.00864 34.4484C3.65642 34.3377 4.23299 33.9779 4.6115 33.4484C6.06044 31.418 7.98415 29.7608 10.2202 28.6168C12.4562 27.4728 14.939 26.8755 17.4587 26.8754C19.9784 26.8753 22.4612 27.4724 24.6973 28.6162C26.9335 29.7601 28.8573 31.4171 30.3064 33.4474C30.4939 33.7096 30.7319 33.9329 31.0069 34.1044C31.282 34.276 31.5886 34.3925 31.9094 34.4474C32.2301 34.5022 32.5587 34.4943 32.8764 34.4241C33.194 34.3539 33.4945 34.2227 33.7607 34.0381C34.0269 33.8535 34.2536 33.6191 34.4278 33.3482C34.602 33.0773 34.7203 32.7752 34.776 32.4593C34.8317 32.1434 34.8236 31.8198 34.7523 31.5069C34.681 31.194 34.5479 30.898 34.3604 30.6359C32.2333 27.6629 29.3372 25.3047 25.9727 23.8058ZM9.19602 13.8532C9.19602 12.2435 9.68065 10.6699 10.5886 9.33148C11.4966 7.99305 12.7872 6.94988 14.2971 6.33387C15.8071 5.71786 17.4685 5.55668 19.0715 5.87072C20.6744 6.18476 22.1468 6.95991 23.3025 8.09815C24.4581 9.23638 25.2451 10.6866 25.564 12.2654C25.8828 13.8441 25.7192 15.4806 25.0937 16.9678C24.4683 18.455 23.4092 19.7261 22.0503 20.6204C20.6914 21.5147 19.0937 21.992 17.4594 21.992C15.2686 21.9896 13.1682 21.1313 11.619 19.6055C10.0699 18.0797 9.19848 16.011 9.19602 13.8532ZM50.6021 34.0381C50.3359 34.2228 50.0354 34.354 49.7177 34.4243C49.4001 34.4945 49.0715 34.5024 48.7507 34.4476C48.4299 34.3927 48.1232 34.2762 47.8482 34.1046C47.5732 33.933 47.3352 33.7097 47.1478 33.4474C45.6969 31.419 43.7728 29.7633 41.5371 28.6197C39.3015 27.476 36.8197 26.8778 34.3005 26.8753C33.6431 26.8753 33.0125 26.6181 32.5476 26.1602C32.0827 25.7023 31.8215 25.0812 31.8215 24.4337C31.8215 23.7861 32.0827 23.1651 32.5476 22.7072C33.0125 22.2493 33.6431 21.992 34.3005 21.992C35.4805 21.9906 36.6465 21.7403 37.7201 21.258C38.7936 20.7757 39.7498 20.0725 40.5244 19.1957C41.299 18.319 41.8739 17.289 42.2106 16.1751C42.5472 15.0612 42.6377 13.8892 42.476 12.738C42.3144 11.5868 41.9042 10.483 41.2732 9.50091C40.6422 8.51885 39.805 7.68127 38.8179 7.04454C37.8308 6.4078 36.7166 5.98667 35.5504 5.80949C34.3843 5.6323 33.1931 5.70316 32.057 6.0173C31.4241 6.19266 30.7464 6.11319 30.1729 5.79638C29.5995 5.47957 29.1773 4.95138 28.9993 4.32799C28.8212 3.7046 28.9019 3.03708 29.2236 2.47228C29.5452 1.90748 30.0815 1.49167 30.7144 1.31631C33.6228 0.507604 36.7247 0.704982 39.5032 1.87555C42.2817 3.04612 44.5691 5.11917 45.984 7.74925C47.399 10.3793 47.8561 13.4076 47.2792 16.3293C46.7023 19.2511 45.1262 21.8899 42.8137 23.806C46.1782 25.3048 49.0743 27.663 51.2016 30.6359C51.5801 31.1653 51.7296 31.8212 51.6172 32.4592C51.5047 33.0972 51.1396 33.665 50.6021 34.0379V34.0381Z" fill="#C4C4C4"/>
</svg>
