<svg width="42" height="28" viewBox="0 0 42 28" fill="none" xmlns="http://www.w3.org/2000/svg">
<path d="M20.9476 18.5399C22.6192 17.1542 23.8179 15.2958 24.3811 13.2166C24.9443 11.1373 24.8447 8.93783 24.0959 6.91618C23.3472 4.89454 21.9854 3.14855 20.1952 1.91488C18.405 0.681212 16.2729 0.0195312 14.088 0.0195312C11.9031 0.0195312 9.77109 0.681212 7.98088 1.91488C6.19067 3.14855 4.82888 4.89454 4.08011 6.91618C3.33133 8.93783 3.23179 11.1373 3.79496 13.2166C4.35814 15.2958 5.5568 17.1542 7.22846 18.5399C4.51717 19.7478 2.18345 21.6483 0.469444 24.0442C0.318431 24.2554 0.211142 24.4939 0.153702 24.746C0.0962628 24.9981 0.0897976 25.2589 0.134676 25.5134C0.179554 25.768 0.274897 26.0113 0.415262 26.2296C0.555626 26.4478 0.738262 26.6367 0.952743 26.7854C1.38591 27.0858 1.92248 27.2044 2.44443 27.1152C2.96638 27.0259 3.43095 26.7361 3.73593 26.3094C4.9034 24.6734 6.45342 23.3382 8.2551 22.4164C10.0568 21.4946 12.0572 21.0133 14.0875 21.0132C16.1177 21.0132 18.1182 21.4943 19.92 22.4159C21.7217 23.3376 23.2718 24.6727 24.4394 26.3086C24.5905 26.5199 24.7823 26.6997 25.0039 26.838C25.2255 26.9762 25.4726 27.0701 25.731 27.1143C25.9895 27.1585 26.2542 27.1521 26.5102 27.0956C26.7661 27.039 27.0082 26.9333 27.2227 26.7845C27.4372 26.6358 27.6198 26.4469 27.7602 26.2286C27.9006 26.0104 27.9959 25.767 28.0408 25.5124C28.0856 25.2579 28.0792 24.9971 28.0217 24.745C27.9643 24.4929 27.857 24.2545 27.7059 24.0432C25.992 21.6478 23.6585 19.7476 20.9476 18.5399ZM7.42987 10.5207C7.42987 9.22366 7.82037 7.95577 8.55197 6.87734C9.28358 5.79892 10.3234 4.95839 11.5401 4.46204C12.7567 3.96569 14.0954 3.83583 15.387 4.08886C16.6785 4.3419 17.8649 4.96647 18.796 5.8836C19.7272 6.80072 20.3613 7.96921 20.6182 9.24131C20.8751 10.5134 20.7433 11.832 20.2393 13.0302C19.7354 14.2285 18.882 15.2527 17.7871 15.9733C16.6922 16.6939 15.4049 17.0785 14.088 17.0785C12.3228 17.0765 10.6304 16.385 9.38219 15.1556C8.13397 13.9262 7.43186 12.2593 7.42987 10.5207ZM40.7925 26.7845C40.5781 26.9333 40.3359 27.0391 40.08 27.0957C39.824 27.1523 39.5592 27.1587 39.3008 27.1145C39.0423 27.0703 38.7952 26.9764 38.5736 26.8381C38.352 26.6998 38.1602 26.5199 38.0093 26.3086C36.8402 24.6742 35.2899 23.3402 33.4885 22.4187C31.6872 21.4972 29.6875 21.0152 27.6577 21.0132C27.1279 21.0132 26.6198 20.8059 26.2453 20.437C25.8707 20.068 25.6602 19.5676 25.6602 19.0458C25.6602 18.5241 25.8707 18.0237 26.2453 17.6547C26.6198 17.2858 27.1279 17.0785 27.6577 17.0785C28.6084 17.0774 29.5479 16.8757 30.4129 16.4871C31.2779 16.0984 32.0484 15.5318 32.6725 14.8254C33.2966 14.119 33.7599 13.2891 34.0311 12.3916C34.3024 11.494 34.3753 10.5497 34.245 9.62212C34.1148 8.69452 33.7843 7.80516 33.2759 7.01387C32.7675 6.22257 32.0929 5.5477 31.2975 5.03466C30.5021 4.52161 29.6044 4.18229 28.6648 4.03952C27.7251 3.89676 26.7653 3.95385 25.85 4.20697C25.34 4.34826 24.7939 4.28423 24.3319 4.02897C23.8698 3.7737 23.5297 3.34811 23.3862 2.84582C23.2428 2.34352 23.3078 1.80567 23.5669 1.35059C23.8261 0.895509 24.2582 0.560469 24.7682 0.419177C27.1116 -0.232431 29.6109 -0.0733957 31.8497 0.869781C34.0885 1.81296 35.9315 3.48331 37.0716 5.60247C38.2116 7.72164 38.58 10.1616 38.1151 12.5158C37.6503 14.87 36.3804 16.9962 34.5171 18.5401C37.228 19.7477 39.5616 21.6478 41.2756 24.0432C41.5806 24.4698 41.701 24.9983 41.6104 25.5123C41.5198 26.0264 41.2256 26.484 40.7925 26.7844V26.7845Z" fill="black"/>
</svg>
