<svg width="48" height="41" viewBox="0 0 48 41" fill="none" xmlns="http://www.w3.org/2000/svg">
<path opacity="0.35" d="M44.5527 12.284C42.8392 12.284 40.9268 11.8078 38.8154 10.8555C40.682 13.9507 41.6152 17.284 41.6152 20.8555C41.6152 23.5638 41.0721 26.1531 39.9858 28.6233C38.8996 31.0936 37.4385 33.2215 35.6025 35.0073C33.7666 36.793 31.5788 38.2141 29.0391 39.2706C26.4993 40.3272 23.8372 40.8555 21.0527 40.8555C18.2682 40.8555 15.6061 40.3272 13.0664 39.2706C10.5267 38.2141 8.33887 36.793 6.50293 35.0073C4.66699 33.2215 3.20589 31.0936 2.11963 28.6233C1.03337 26.1531 0.490234 23.5638 0.490234 20.8555C0.490234 18.1471 1.03337 15.5578 2.11963 13.0876C3.20589 10.6174 4.66699 8.4894 6.50293 6.70368C8.33887 4.91797 10.5267 3.49684 13.0664 2.44029C15.6061 1.38374 18.2682 0.855469 21.0527 0.855469C25.7038 0.855469 29.8958 2.25428 33.6289 5.0519C34.5163 4.27809 35.4954 3.48196 36.5664 2.6635C37.6374 1.84505 38.3411 1.33166 38.6777 1.12333C39.1673 0.855469 39.6646 0.788504 40.1694 0.922433C40.6743 1.05636 41.0568 1.36142 41.3169 1.83761C41.577 2.3138 41.6382 2.81975 41.5005 3.35547C41.3628 3.89118 41.0645 4.29297 40.6055 4.56083C39.6875 5.1263 38.0505 5.87035 35.6943 6.79297C35.6943 6.82273 35.702 6.84505 35.7173 6.85993C35.7326 6.87481 35.7555 6.88226 35.7861 6.88226C37.4385 7.17987 39.305 7.5891 41.3857 8.10993C43.4665 8.63077 45.0117 9.06975 46.0215 9.4269C47.0007 9.75428 47.4902 10.2305 47.4902 10.8555C47.4902 11.2424 47.1919 11.5772 46.5952 11.8599C45.9985 12.1427 45.3177 12.284 44.5527 12.284ZM9.30273 12.284C7.3444 14.8436 6.36523 17.7007 6.36523 20.8555C6.36523 21.8078 6.45703 22.7602 6.64062 23.7126H9.57812C9.39453 23.2067 9.30273 22.7305 9.30273 22.284C9.30273 21.0936 9.73112 20.0817 10.5879 19.2483C11.4447 18.415 12.485 17.9983 13.709 17.9983C14.9329 17.9983 15.9733 18.415 16.8301 19.2483C17.6868 20.0817 18.1152 21.0936 18.1152 22.284C18.1152 22.7305 18.0234 23.2067 17.8398 23.7126H24.2656C24.082 23.2067 23.9902 22.7305 23.9902 22.284C23.9902 21.0936 24.4186 20.0817 25.2754 19.2483C26.1322 18.415 27.1725 17.9983 28.3965 17.9983C29.6204 17.9983 30.6608 18.415 31.5176 19.2483C32.3743 20.0817 32.8027 21.0936 32.8027 22.284C32.8027 22.7305 32.7109 23.2067 32.5273 23.7126H35.4189C35.6331 22.7602 35.7402 21.8078 35.7402 20.8555C35.7402 17.7007 34.7458 14.8436 32.7568 12.284H9.30273Z" fill="black"/>
</svg>
