<svg width="46" height="38" viewBox="0 0 46 38" fill="none" xmlns="http://www.w3.org/2000/svg">
<path opacity="0.75" d="M42.5508 10.8571C40.9102 10.8571 39.0791 10.4048 37.0576 9.5C38.8447 12.4405 39.7383 15.6071 39.7383 19C39.7383 21.5729 39.2183 24.0327 38.1782 26.3795C37.1382 28.7262 35.7393 30.7478 33.9814 32.4442C32.2236 34.1406 30.1289 35.4907 27.6973 36.4944C25.2656 37.4981 22.7168 38 20.0508 38C17.3848 38 14.8359 37.4981 12.4043 36.4944C9.97266 35.4907 7.87793 34.1406 6.12012 32.4442C4.3623 30.7478 2.96338 28.7262 1.92334 26.3795C0.883301 24.0327 0.363281 21.5729 0.363281 19C0.363281 16.4271 0.883301 13.9673 1.92334 11.6205C2.96338 9.27381 4.3623 7.25223 6.12012 5.5558C7.87793 3.85938 9.97266 2.5093 12.4043 1.50558C14.8359 0.50186 17.3848 0 20.0508 0C24.5039 0 28.5176 1.32887 32.0918 3.98661C32.9414 3.25149 33.8789 2.49516 34.9043 1.71763C35.9297 0.940104 36.6035 0.452381 36.9258 0.254464C37.3945 0 37.8706 -0.0636161 38.354 0.0636161C38.8374 0.190848 39.2036 0.480655 39.4526 0.933036C39.7017 1.38542 39.7603 1.86607 39.6284 2.375C39.4966 2.88393 39.2109 3.26563 38.7715 3.52009C37.8926 4.05729 36.3252 4.76414 34.0693 5.64062C34.0693 5.6689 34.0767 5.6901 34.0913 5.70424C34.106 5.71838 34.1279 5.72545 34.1572 5.72545C35.7393 6.00818 37.5264 6.39695 39.5186 6.89174C41.5107 7.38653 42.9902 7.80357 43.957 8.14286C44.8945 8.45387 45.3633 8.90625 45.3633 9.5C45.3633 9.86756 45.0776 10.1856 44.5063 10.4542C43.9351 10.7228 43.2832 10.8571 42.5508 10.8571ZM8.80078 10.8571C6.92578 13.2887 5.98828 16.003 5.98828 19C5.98828 19.9048 6.07617 20.8095 6.25195 21.7143H9.06445C8.88867 21.2336 8.80078 20.7812 8.80078 20.3571C8.80078 19.2262 9.21094 18.2649 10.0312 17.4732C10.8516 16.6815 11.8477 16.2857 13.0195 16.2857C14.1914 16.2857 15.1875 16.6815 16.0078 17.4732C16.8281 18.2649 17.2383 19.2262 17.2383 20.3571C17.2383 20.7812 17.1504 21.2336 16.9746 21.7143H23.127C22.9512 21.2336 22.8633 20.7812 22.8633 20.3571C22.8633 19.2262 23.2734 18.2649 24.0938 17.4732C24.9141 16.6815 25.9102 16.2857 27.082 16.2857C28.2539 16.2857 29.25 16.6815 30.0703 17.4732C30.8906 18.2649 31.3008 19.2262 31.3008 20.3571C31.3008 20.7812 31.2129 21.2336 31.0371 21.7143H33.8057C34.0107 20.8095 34.1133 19.9048 34.1133 19C34.1133 16.003 33.1611 13.2887 31.2568 10.8571H8.80078Z" fill="black"/>
</svg>
