<svg width="48" height="49" viewBox="0 0 48 49" fill="none" xmlns="http://www.w3.org/2000/svg">
<path d="M8.79408 27.0602C8.79408 29.1509 7.23942 30.5735 5.64704 30.5735C4.05467 30.5735 2.5 29.1509 2.5 27.0602C2.5 24.9695 4.05467 23.5469 5.64704 23.5469C7.23942 23.5469 8.79408 24.9695 8.79408 27.0602Z" fill="black" stroke="black" stroke-width="5"/>
<path d="M20.088 39.0876C20.088 41.1783 18.5334 42.6009 16.941 42.6009C15.3486 42.6009 13.7939 41.1783 13.7939 39.0876C13.7939 36.9969 15.3486 35.5742 16.941 35.5742C18.5334 35.5742 20.088 36.9969 20.088 39.0876Z" fill="black" stroke="black" stroke-width="5"/>
<path d="M39.8537 39.0864C39.8537 42.8376 37.0349 45.6064 33.8832 45.6064C30.7314 45.6064 27.9126 42.8376 27.9126 39.0864C27.9126 35.3352 30.7314 32.5664 33.8832 32.5664C37.0349 32.5664 39.8537 35.3352 39.8537 39.0864Z" fill="black" stroke="black" stroke-width="5"/>
<path d="M25.7351 9.02001C25.7351 12.7712 22.9163 15.54 19.7645 15.54C16.6127 15.54 13.7939 12.7712 13.7939 9.02001C13.7939 5.26877 16.6127 2.5 19.7645 2.5C22.9163 2.5 25.7351 5.26877 25.7351 9.02001Z" fill="black" stroke="black" stroke-width="5"/>
<path d="M45.4999 19.5421C45.4999 22.463 43.3132 24.5587 40.9411 24.5587C38.5691 24.5587 36.3823 22.463 36.3823 19.5421C36.3823 16.6211 38.5691 14.5254 40.9411 14.5254C43.3132 14.5254 45.4999 16.6211 45.4999 19.5421Z" fill="black" stroke="black" stroke-width="5"/>
</svg>
