<svg width="54" height="60" viewBox="0 0 54 60" fill="none" xmlns="http://www.w3.org/2000/svg">
<g filter="url(#filter0_d)">
<path d="M16.1575 32.2875C16.3257 32.474 16.6023 32.474 16.7705 32.2875L22.2926 26.164L26.9632 31.3491C27.1313 31.5356 27.408 31.5356 27.5761 31.3491L39.8518 17.7246C40.02 17.5381 40.02 17.2313 39.8518 17.0449L37.8556 14.8313C37.6875 14.6448 37.4108 14.6448 37.2426 14.8313L27.2724 25.8993L22.6018 20.7142C22.4337 20.5277 22.157 20.5277 21.9889 20.7142L14.1613 29.3942C13.9931 29.5807 13.9931 29.8874 14.1613 30.0739L16.1575 32.2875Z" fill="black"/>
<path d="M48.2641 6.33098H28.9528V2.48122C28.9528 2.21655 28.7575 2 28.5189 2H25.4811C25.2425 2 25.0472 2.21655 25.0472 2.48122V6.33098H5.73585C4.77571 6.33098 4 7.19116 4 8.25586V39.5352C4 40.5999 4.77571 41.46 5.73585 41.46H25.0689V43.3849L16.1292 49.8874C15.9285 50.0318 15.8743 50.3265 16.0045 50.5491L17.6481 53.3883V53.3943C17.7783 53.6169 18.0495 53.677 18.2502 53.5327L27 47.1685L35.7498 53.5327C35.9505 53.677 36.2217 53.6169 36.3519 53.3943V53.3883L37.9955 50.5491C38.1257 50.3265 38.066 50.0318 37.8708 49.8874L28.9528 43.403V41.46H48.2641C49.2243 41.46 50 40.5999 50 39.5352V8.25586C50 7.19116 49.2243 6.33098 48.2641 6.33098ZM46.0943 37.1291H7.90566V10.662H46.0943V37.1291Z" fill="black"/>
</g>
<defs>
<filter id="filter0_d" x="0" y="0" width="54" height="59.611" filterUnits="userSpaceOnUse" color-interpolation-filters="sRGB">
<feFlood flood-opacity="0" result="BackgroundImageFix"/>
<feColorMatrix in="SourceAlpha" type="matrix" values="0 0 0 0 0 0 0 0 0 0 0 0 0 0 0 0 0 0 127 0"/>
<feOffset dy="2"/>
<feGaussianBlur stdDeviation="2"/>
<feColorMatrix type="matrix" values="0 0 0 0 0 0 0 0 0 0 0 0 0 0 0 0 0 0 0.25 0"/>
<feBlend mode="normal" in2="BackgroundImageFix" result="effect1_dropShadow"/>
<feBlend mode="normal" in="SourceGraphic" in2="effect1_dropShadow" result="shape"/>
</filter>
</defs>
</svg>
