<svg width="56" height="57" viewBox="0 0 56 57" fill="none" xmlns="http://www.w3.org/2000/svg">
<g filter="url(#filter0_d)">
<path d="M12.7941 29.0602C12.7941 31.1509 11.2394 32.5735 9.64704 32.5735C8.05467 32.5735 6.5 31.1509 6.5 29.0602C6.5 26.9695 8.05467 25.5469 9.64704 25.5469C11.2394 25.5469 12.7941 26.9695 12.7941 29.0602Z" fill="black" stroke="black" stroke-width="5"/>
<path d="M24.0871 41.0876C24.0871 43.1783 22.5324 44.6009 20.94 44.6009C19.3476 44.6009 17.793 43.1783 17.793 41.0876C17.793 38.9969 19.3476 37.5742 20.94 37.5742C22.5324 37.5742 24.0871 38.9969 24.0871 41.0876Z" fill="black" stroke="black" stroke-width="5"/>
<path d="M43.8552 41.0864C43.8552 44.8376 41.0364 47.6064 37.8846 47.6064C34.7329 47.6064 31.9141 44.8376 31.9141 41.0864C31.9141 37.3352 34.7329 34.5664 37.8846 34.5664C41.0364 34.5664 43.8552 37.3352 43.8552 41.0864Z" fill="black" stroke="black" stroke-width="5"/>
<path d="M29.7341 11.02C29.7341 14.7712 26.9153 17.54 23.7635 17.54C20.6118 17.54 17.793 14.7712 17.793 11.02C17.793 7.26877 20.6118 4.5 23.7635 4.5C26.9153 4.5 29.7341 7.26877 29.7341 11.02Z" fill="black" stroke="black" stroke-width="5"/>
<path d="M49.5004 21.5421C49.5004 24.463 47.3137 26.5587 44.9416 26.5587C42.5695 26.5587 40.3828 24.463 40.3828 21.5421C40.3828 18.6211 42.5695 16.5254 44.9416 16.5254C47.3137 16.5254 49.5004 18.6211 49.5004 21.5421Z" fill="black" stroke="black" stroke-width="5"/>
</g>
<defs>
<filter id="filter0_d" x="0" y="0" width="56.0004" height="56.1064" filterUnits="userSpaceOnUse" color-interpolation-filters="sRGB">
<feFlood flood-opacity="0" result="BackgroundImageFix"/>
<feColorMatrix in="SourceAlpha" type="matrix" values="0 0 0 0 0 0 0 0 0 0 0 0 0 0 0 0 0 0 127 0"/>
<feOffset dy="2"/>
<feGaussianBlur stdDeviation="2"/>
<feColorMatrix type="matrix" values="0 0 0 0 0 0 0 0 0 0 0 0 0 0 0 0 0 0 0.25 0"/>
<feBlend mode="normal" in2="BackgroundImageFix" result="effect1_dropShadow"/>
<feBlend mode="normal" in="SourceGraphic" in2="effect1_dropShadow" result="shape"/>
</filter>
</defs>
</svg>
