<?xml version="1.0" encoding="utf-8"?>
<!-- Generator: Adobe Illustrator 16.0.0, SVG Export Plug-In . SVG Version: 6.00 Build 0)  -->
<!DOCTYPE svg PUBLIC "-//W3C//DTD SVG 1.1//EN" "http://www.w3.org/Graphics/SVG/1.1/DTD/svg11.dtd">
<svg version="1.1" id="Layer_1" xmlns="http://www.w3.org/2000/svg" xmlns:xlink="http://www.w3.org/1999/xlink" x="0px" y="0px"
	 width="841.89px" height="595.28px" viewBox="0 0 841.89 595.28" enable-background="new 0 0 841.89 595.28" xml:space="preserve">
<rect x="396.956" y="291.337" fill="#FBD802" width="34.05" height="4.727"/>
<rect x="393.128" y="277.189" fill="#FBD802" width="4.726" height="4.726"/>
<rect x="400.458" y="277.189" fill="#FBD802" width="4.726" height="4.726"/>
<rect x="407.79" y="277.189" fill="#FBD802" width="4.726" height="4.726"/>
<rect x="415.121" y="277.189" fill="#FBD802" width="4.726" height="4.726"/>
<rect x="422.451" y="277.189" fill="#FBD802" width="4.726" height="4.726"/>
<rect x="429.782" y="277.189" fill="#FBD802" width="4.726" height="4.726"/>
<rect x="437.113" y="277.189" fill="#FBD802" width="4.726" height="4.726"/>
<rect x="444.443" y="277.189" fill="#FBD802" width="4.727" height="4.726"/>
<rect x="389.626" y="284.263" fill="#FBD802" width="4.726" height="4.727"/>
<rect x="396.956" y="284.263" fill="#FBD802" width="4.726" height="4.727"/>
<rect x="404.287" y="284.263" fill="#FBD802" width="4.726" height="4.727"/>
<rect x="411.619" y="284.263" fill="#FBD802" width="4.726" height="4.727"/>
<rect x="418.949" y="284.263" fill="#FBD802" width="4.726" height="4.727"/>
<rect x="426.281" y="284.263" fill="#FBD802" width="4.725" height="4.727"/>
<rect x="433.611" y="284.263" fill="#FBD802" width="4.727" height="4.727"/>
<rect x="440.943" y="284.263" fill="#FBD802" width="4.726" height="4.727"/>
<rect x="448.273" y="284.263" fill="#FBD802" width="4.727" height="4.727"/>
<rect x="389.626" y="291.337" fill="#FBD802" width="4.726" height="4.727"/>
<rect x="440.943" y="291.337" fill="#FBD802" width="4.726" height="4.727"/>
<rect x="448.273" y="291.337" fill="#FBD802" width="4.727" height="4.727"/>
<polyline fill="none" stroke="#10BCC3" stroke-width="1.724" stroke-miterlimit="10" points="458.141,302.654 458.141,271.979 
	421.312,271.979 384.252,271.979 384.252,302.654 "/>
<path fill="none" stroke="#10BCC3" stroke-width="1.724" stroke-miterlimit="10" d="M427.66,258.282v1.736
	c0,1.386-1.123,2.509-2.509,2.509h-14.083c-1.385,0-2.508,1.123-2.508,2.507c0,1.386,1.123,2.508,2.508,2.508h7.736
	c1.385,0,2.508,1.124,2.508,2.508v1.931"/>
<path fill="#FFFFFF" d="M409.013,329.432v-4.181l5.381-7.027c0.471-0.613,0.726-1.364,0.726-2.137v-7.039
	c0-0.96-0.778-1.737-1.738-1.737h-3.23l0.016,6.046v-17.488c0-0.961-0.779-1.741-1.741-1.741h-1.502
	c-0.961,0-1.741,0.78-1.741,1.741v11.121v-13.05c0-0.961-0.78-1.741-1.741-1.741h-1.244c-0.963,0-1.742,0.78-1.742,1.741v13.05
	v-11.121c0-0.961-0.779-1.741-1.741-1.741h-1.485c-0.961,0-1.742,0.78-1.742,1.741v11.057v-7.262c0-0.962-0.779-1.741-1.74-1.741
	h-1.325c-0.962,0-1.742,0.779-1.742,1.741v15.598c0,0.441,0.084,0.877,0.244,1.287l3.425,8.703v4.181"/>
<path fill="none" stroke="#10BCC3" stroke-width="1.724" stroke-miterlimit="10" d="M409.013,329.432v-4.181l5.381-7.027
	c0.471-0.613,0.726-1.364,0.726-2.137v-7.039c0-0.96-0.778-1.737-1.738-1.737h-3.23l0.016,6.046v-17.488
	c0-0.961-0.779-1.741-1.741-1.741h-1.502c-0.961,0-1.741,0.78-1.741,1.741v11.121v-13.05c0-0.961-0.78-1.741-1.741-1.741h-1.244
	c-0.963,0-1.742,0.78-1.742,1.741v13.05v-11.121c0-0.961-0.779-1.741-1.741-1.741h-1.485c-0.961,0-1.742,0.78-1.742,1.741v11.057
	v-7.262c0-0.962-0.779-1.741-1.74-1.741h-1.325c-0.962,0-1.742,0.779-1.742,1.741v15.598c0,0.441,0.084,0.877,0.244,1.287
	l3.425,8.703v4.181"/>
<path fill="#FFFFFF" d="M434.652,329.432v-4.181l-5.382-7.027c-0.47-0.613-0.726-1.364-0.726-2.137v-7.039
	c0-0.96,0.777-1.737,1.738-1.737h3.23l-0.018,6.046v-19.417c0-0.961,0.779-1.741,1.742-1.741h1.502c0.961,0,1.74,0.78,1.74,1.741
	v13.05v-5.333c0-0.962,0.78-1.74,1.741-1.74h1.378c0.961,0,1.688,0.727,1.688,1.688v5.332v-4.946c0-0.961,0.832-1.689,1.793-1.689
	h1.354c0.961,0,1.742,0.78,1.742,1.741v4.883v-1.089c0-0.961,0.779-1.741,1.74-1.741h1.324c0.963,0,1.742,0.78,1.742,1.741v9.425
	c0,0.441-0.084,0.877-0.244,1.287l-3.425,8.703v4.181"/>
<path fill="none" stroke="#10BCC3" stroke-width="1.724" stroke-miterlimit="10" d="M434.652,329.432v-4.181l-5.382-7.027
	c-0.47-0.613-0.726-1.364-0.726-2.137v-7.039c0-0.96,0.777-1.737,1.738-1.737h3.23l-0.018,6.046v-19.417
	c0-0.961,0.779-1.741,1.742-1.741h1.502c0.961,0,1.74,0.78,1.74,1.741v13.05v-5.333c0-0.962,0.78-1.74,1.741-1.74h1.378
	c0.961,0,1.688,0.727,1.688,1.688v5.332v-4.946c0-0.961,0.832-1.689,1.793-1.689h1.354c0.961,0,1.742,0.78,1.742,1.741v4.883v-1.089
	c0-0.961,0.779-1.741,1.74-1.741h1.324c0.963,0,1.742,0.78,1.742,1.741v9.425c0,0.441-0.084,0.877-0.244,1.287l-3.425,8.703v4.181"
	/>
<polyline fill="#FFFFFF" points="392.326,337.599 392.326,329.432 411.039,329.432 411.039,337.599 "/>
<polyline fill="none" stroke="#10BCC3" stroke-width="1.724" stroke-miterlimit="10" points="392.326,337.599 392.326,329.432 
	411.039,329.432 411.039,337.599 "/>
<polyline fill="#FFFFFF" points="432.998,337.599 432.998,329.432 451.104,329.432 451.104,337.599 "/>
<polyline fill="none" stroke="#10BCC3" stroke-width="1.724" stroke-miterlimit="10" points="432.998,337.599 432.998,329.432 
	451.104,329.432 451.104,337.599 "/>
</svg>
